{"title":"Boardwalk Empire S04E10 720p x264 [MKV,AC3,5.1] Ehhhh","uid":9181723,"size":575261652,"categoryP":"video","categoryS":"hd___tv_shows","magnet":"?xt=urn:btih:6592b659224f833ed12cdecb82d79090c5fb49c5&amp;dn=Boardwalk+Empire+S04E10+720p+x264+%5BMKV%2CAC3%2C5.1%5D+Ehhhh&amp;tr=udp%3A%2F%2Ftracker.openbittorrent.com%3A80&amp;tr=udp%3A%2F%2Fopen.demonii.com%3A1337&amp;tr=udp%3A%2F%2Ftracker.coppersurfer.tk%3A6969&amp;tr=udp%3A%2F%2Fexodus.desync.com%3A6969","seeders":1,"leechers":3,"uploader":"mynameisurlz","files":-1,"time":1384235744,"description":" Nucky gets a tip from Sally about some extra cargo in Florida shipments; Margaret mulls a deal with Rothstein to help her family; Capone becomes wary of Torrio's motives; Eli tries to mend his relationship with Willie. \n\nGeneral\nUnique ID                                : 244833702890978777716204773013185348219 (0xB8314187DBE9CEDDB140E2B677CFC27B)\nComplete name                            : J:UppersTVBoardwalk EmpireBoardwalk Empire Season 4 - COMPLETE 720p x264 [MKV,AC3,5.1] EhhhhBoardwalk Empire S04E10 720p x264 [MKV,AC3,5.1] EhhhhBoardwalk Empire S04E10 - White Horse Pike - Ehhhh.mkv\nFormat                                   : Matroska\nFormat version                           : Version 4 / Version 2\nFile size                                : 548 MiB\nDuration                                 : 55mn 5s\nOverall bit rate                         : 1 391 Kbps\nEncoded date                             : UTC 2013-11-11 15:03:31\nWriting application                      : mkvmerge v6.2.0 ('Promised Land') built on Apr 28 2013 12:22:01\nWriting library                          : libebml v1.3.0 + libmatroska v1.4.0\n\nVideo\nID                                       : 1\nFormat                                   : AVC\nFormat/Info                              : Advanced Video Codec\nFormat profile                           : &lt;a class=&quot;__cf_email__&quot; href=&quot;/cdn-cgi/l/email-protection&quot; data-cfemail=&quot;eaa2838d82aaa6dec4db&quot;&gt;[email&amp;#160;protected]&lt;/a&gt;&lt;script cf-hash='f9e31' type=&quot;text/javascript&quot;&gt;\n/* &lt;![CDATA[ */!function(){try{var t=&quot;currentScript&quot;in document?document.currentScript:function(){for(var t=document.getElementsByTagName(&quot;script&quot;),e=t.length;e--;)if(t[e].getAttribute(&quot;cf-hash&quot;))return t[e]}();if(t&amp;&amp;t.previousSibling){var e,r,n,i,c=t.previousSibling,a=c.getAttribute(&quot;data-cfemail&quot;);if(a){for(e=&quot;&quot;,r=parseInt(a.substr(0,2),16),n=2;a.length-n;n+=2)i=parseInt(a.substr(n,2),16)^r,e+=String.fromCharCode(i);e=document.createTextNode(e),c.parentNode.replaceChild(e,c)}}}catch(u){}}();/* ]]&gt; */&lt;/script&gt;\nFormat settings, CABAC                   : Yes\nFormat settings, ReFrames                : 14 frames\nCodec ID                                 : V_MPEG4/ISO/AVC\nDuration                                 : 55mn 5s\nBit rate                                 : 1 010 Kbps\nWidth                                    : 1 280 pixels\nHeight                                   : 720 pixels\nDisplay aspect ratio                     : 16:9\nFrame rate mode                          : Constant\nFrame rate                               : 23.976 fps\nColor space                              : YUV\nChroma subsampling                       : 4:2:0\nBit depth                                : 8 bits\nScan type                                : Progressive\nBits/(Pixel*Frame)                       : 0.046\nStream size                              : 386 MiB (70%)\nWriting library                          : x264 core 138 r2359+704+48 3f879a0 tMod [8-bit@all X86]\nEncoding settings                        : cabac=1 // deblock=1:0:0 / analyse=0x3:0x133 / me=umh / subme=10 / psy=1 / fade_compensate=0.00 / psy_rd=1.00:0.00 // me_range=24 / chroma_me=1 / trellis=2 / 8x8dct=1 / cqm=0 / deadzone=21,11 / fast_pskip=1 / chroma_qp_offset=-2 / threads=2 / lookahead_threads=1 / sliced_threads=0 / nr=0 / decimate=1 / interlaced=0 / bluray_compat=0 / constrained_intra=0 / fgo=0 / bframes=7 / b_pyramid=1 / b_adapt=2 / b_bias=0 / direct=3 / weightb=1 / open_gop=0 / weightp=2 / keyint=250 / keyint_min=25 / scenecut=40 / intra_refresh=0 / rc_lookahead=60 / rc=abr / mbtree=1 / bitrate=1010 / ratetol=1.0 / qcomp=0.60 / qpmin=0:0:0 / qpmax=69:69:69 / qpstep=4 / ip_ratio=1.40 / aq=1:1.00 / aq-sensitivity=10.00 / aq-factor=1.00:1.00:1.00 / aq2=0 / aq3=0\nDefault                                  : Yes\nForced                                   : No\n\nAudio\nID                                       : 2\nFormat                                   : AC-3\nFormat/Info                              : Audio Coding 3\nMode extension                           : CM (complete main)\nFormat settings, Endianness              : Big\nCodec ID                                 : A_AC3\nDuration                                 : 55mn 5s\nBit rate mode                            : Constant\nBit rate                                 : 384 Kbps\nChannel(s)                               : 6 channels\nChannel positions                        : Front: L C R, Side: L R, LFE\nSampling rate                            : 48.0 KHz\nBit depth                                : 16 bits\nCompression mode                         : Lossy\nStream size                              : 151 MiB (28%)\nDefault                                  : Yes\nForced                                   : No\n\n","torrent":{"xt":"urn:btih:6592b659224f833ed12cdecb82d79090c5fb49c5","amp;dn":"Boardwalk+Empire+S04E10+720p+x264+%5BMKV%2CAC3%2C5.1%5D+Ehhhh","amp;tr":["udp%3A%2F%2Ftracker.openbittorrent.com%3A80","udp%3A%2F%2Fopen.demonii.com%3A1337","udp%3A%2F%2Ftracker.coppersurfer.tk%3A6969","udp%3A%2F%2Fexodus.desync.com%3A6969"],"infoHash":"6592b659224f833ed12cdecb82d79090c5fb49c5","infoHashBuffer":{"type":"Buffer","data":[101,146,182,89,34,79,131,62,209,44,222,203,130,215,144,144,197,251,73,197]},"announce":[],"urlList":[]}}